<svg width="19" height="18" viewBox="0 0 19 18" fill="none" xmlns="http://www.w3.org/2000/svg">
<path d="M12.1666 14.94C12.8774 15.1464 13.6139 15.2508 14.3541 15.25C15.5444 15.2517 16.7193 14.9803 17.7883 14.4567C17.8199 13.7098 17.6071 12.9729 17.1823 12.3578C16.7574 11.7427 16.1436 11.2828 15.4339 11.0479C14.7241 10.813 13.9572 10.8159 13.2492 11.0562C12.5413 11.2964 11.931 11.7609 11.5108 12.3792M12.1666 14.94V14.9375C12.1666 14.01 11.9283 13.1375 11.5108 12.3792M12.1666 14.94V15.0283C10.5628 15.9942 8.72545 16.5032 6.85327 16.5C4.91077 16.5 3.09327 15.9625 1.54161 15.0283L1.54077 14.9375C1.54013 13.7579 1.93212 12.6116 2.65492 11.6794C3.37773 10.7472 4.39025 10.082 5.53285 9.78883C6.67544 9.49564 7.88312 9.59107 8.96549 10.0601C10.0479 10.5291 10.9433 11.345 11.5108 12.3792M9.6666 4.3125C9.6666 5.05842 9.37029 5.77379 8.84284 6.30124C8.3154 6.82868 7.60003 7.125 6.85411 7.125C6.10818 7.125 5.39281 6.82868 4.86537 6.30124C4.33792 5.77379 4.04161 5.05842 4.04161 4.3125C4.04161 3.56658 4.33792 2.85121 4.86537 2.32376C5.39281 1.79632 6.10818 1.5 6.85411 1.5C7.60003 1.5 8.3154 1.79632 8.84284 2.32376C9.37029 2.85121 9.6666 3.56658 9.6666 4.3125ZM16.5416 6.1875C16.5416 6.76766 16.3111 7.32406 15.9009 7.7343C15.4907 8.14453 14.9343 8.375 14.3541 8.375C13.7739 8.375 13.2175 8.14453 12.8073 7.7343C12.3971 7.32406 12.1666 6.76766 12.1666 6.1875C12.1666 5.60734 12.3971 5.05094 12.8073 4.6407C13.2175 4.23047 13.7739 4 14.3541 4C14.9343 4 15.4907 4.23047 15.9009 4.6407C16.3111 5.05094 16.5416 5.60734 16.5416 6.1875Z" stroke="#9393AC" stroke-width="1.5" stroke-linecap="round" stroke-linejoin="round"/>
</svg>
